<?xml version="1.0" standalone="no"?>
<!DOCTYPE svg PUBLIC "-//W3C//DTD SVG 20010904//EN"
 "http://www.w3.org/TR/2001/REC-SVG-20010904/DTD/svg10.dtd">
<svg version="1.0" xmlns="http://www.w3.org/2000/svg"
 width="2937.000000pt" height="2937.000000pt" viewBox="0 0 2937.000000 2937.000000"
 preserveAspectRatio="xMidYMid meet">
<metadata>
Created by potrace 1.14, written by Peter Selinger 2001-2017
</metadata>
<g transform="translate(0.000000,2937.000000) scale(0.100000,-0.100000)"
fill="#000000" stroke="none">
<path d="M20273 26135 c-83 -19 -189 -65 -260 -113 -72 -49 -203 -183 -203
-207 0 -4 -8 -19 -19 -33 -10 -15 -24 -45 -31 -67 -7 -22 -16 -45 -21 -50 -4
-6 -10 -22 -13 -35 -44 -218 -49 -258 -48 -405 2 -183 11 -265 44 -385 67
-248 197 -389 434 -470 109 -38 162 -42 248 -20 298 76 467 249 549 560 50
188 57 470 17 669 -32 161 -101 300 -184 375 -84 75 -140 110 -226 143 -121
47 -200 57 -287 38z"/>
<path d="M14407 23774 c-2 -2 -24 -7 -48 -10 -24 -4 -52 -10 -61 -15 -10 -6
-18 -7 -18 -3 0 3 -7 1 -15 -6 -8 -7 -15 -10 -15 -7 0 4 -21 -3 -47 -14 -87
-38 -98 -42 -105 -43 -38 -4 -175 -231 -203 -336 -1 -3 -4 -12 -7 -20 -3 -8
-10 -30 -16 -49 -19 -58 -8 -254 18 -331 81 -239 285 -516 493 -673 70 -52
154 -100 202 -115 65 -19 89 -26 105 -30 23 -5 192 -4 218 3 12 3 30 7 40 9
55 13 78 19 87 25 6 3 17 6 25 8 15 2 22 5 101 41 47 22 108 95 145 172 4 8
10 17 14 20 15 11 69 160 83 225 19 90 14 210 -12 302 -17 63 -85 214 -124
278 -42 69 -63 102 -77 119 -255 318 -448 445 -682 451 -54 1 -99 1 -101 -1z"/>
<path d="M20207 23593 c-1 0 -63 -4 -137 -8 -127 -6 -179 -9 -275 -20 -22 -2
-65 -7 -95 -10 -53 -5 -103 -12 -165 -21 -16 -3 -41 -7 -55 -9 -62 -9 -117
-18 -135 -21 -29 -6 -125 -23 -160 -30 -144 -25 -507 -123 -721 -192 -123 -40
-382 -137 -461 -173 -36 -16 -71 -29 -78 -29 -7 0 -18 -7 -25 -15 -7 -8 -20
-15 -29 -15 -29 0 -457 -220 -624 -320 -87 -52 -170 -101 -185 -109 -15 -8
-29 -17 -32 -21 -3 -4 -43 -31 -90 -61 -47 -30 -92 -61 -101 -69 -9 -8 -49
-37 -89 -65 -40 -27 -78 -55 -84 -60 -6 -6 -27 -22 -46 -35 -19 -13 -37 -27
-40 -30 -3 -4 -27 -24 -55 -45 -57 -42 -115 -91 -264 -221 -177 -155 -512
-498 -612 -629 -13 -16 -26 -32 -30 -35 -5 -4 -96 -115 -127 -155 -4 -5 -23
-30 -42 -55 -19 -25 -38 -49 -43 -55 -76 -99 -304 -438 -339 -505 -5 -8 -17
-28 -28 -45 -11 -16 -23 -36 -27 -44 -3 -8 -31 -58 -61 -110 -58 -103 -212
-410 -251 -501 -12 -30 -31 -73 -41 -95 -9 -22 -25 -62 -35 -90 -10 -27 -22
-54 -25 -60 -4 -5 -13 -28 -20 -50 -7 -22 -18 -53 -26 -70 -11 -27 -71 -195
-78 -220 -2 -5 -6 -23 -11 -40 -4 -16 -10 -34 -14 -40 -3 -5 -6 -15 -7 -22 -1
-7 -12 -44 -24 -83 -12 -39 -23 -78 -25 -88 -2 -9 -4 -17 -5 -17 -1 0 -3 -7
-5 -15 -2 -8 -19 -79 -39 -157 -20 -78 -36 -149 -36 -157 0 -19 -9 -19 -85 0
-33 8 -73 17 -88 20 -16 2 -34 7 -40 11 -7 4 -16 8 -22 9 -5 1 -46 9 -90 19
-44 9 -100 21 -125 26 -25 4 -56 11 -70 14 -14 3 -36 7 -50 10 -14 2 -50 9
-80 15 -30 6 -71 13 -90 16 -19 2 -46 6 -60 9 -14 3 -47 7 -75 10 -57 7 -103
14 -125 20 -8 2 -46 7 -85 10 -95 9 -146 14 -202 21 -223 27 -915 39 -1168 20
-60 -4 -138 -9 -173 -11 -58 -4 -111 -9 -202 -20 -49 -7 -127 -16 -175 -21
-67 -7 -98 -12 -140 -19 -224 -37 -300 -51 -444 -81 -91 -20 -173 -37 -181
-40 -8 -2 -78 -20 -155 -39 -126 -32 -255 -68 -295 -83 -8 -3 -17 -6 -20 -6
-45 -8 -470 -154 -509 -175 -11 -7 -21 -9 -21 -6 0 3 -10 -1 -22 -9 -13 -8
-27 -16 -33 -17 -11 -2 -18 -4 -130 -49 -44 -18 -109 -46 -145 -62 -36 -16
-92 -41 -125 -56 -67 -30 -393 -195 -534 -271 -14 -8 -77 -45 -140 -83 -63
-37 -118 -68 -123 -68 -4 0 -8 -4 -8 -10 0 -5 -5 -10 -12 -10 -6 0 -25 -11
-42 -23 -17 -13 -36 -26 -41 -28 -19 -7 -220 -144 -223 -151 -2 -5 -8 -8 -13
-8 -10 0 -86 -53 -166 -115 -28 -22 -82 -62 -120 -90 -88 -65 -213 -162 -238
-186 -22 -21 -50 -45 -121 -104 -165 -138 -190 -162 -429 -400 -172 -172 -277
-282 -365 -386 -12 -13 -33 -38 -48 -55 -15 -17 -38 -45 -52 -63 -14 -18 -35
-44 -47 -57 -13 -12 -23 -27 -23 -33 0 -5 -4 -11 -8 -13 -4 -1 -35 -37 -67
-78 -33 -41 -70 -86 -82 -100 -13 -14 -23 -28 -23 -32 0 -5 -7 -16 -16 -25
-20 -23 -228 -315 -249 -351 -5 -9 -24 -37 -40 -62 -46 -68 -148 -233 -162
-260 -4 -8 -30 -55 -59 -105 -28 -49 -62 -110 -76 -135 -14 -25 -35 -62 -46
-82 -12 -20 -51 -97 -88 -170 -37 -73 -84 -157 -103 -187 -20 -29 -40 -61 -46
-70 -5 -9 -26 -37 -45 -61 -19 -25 -39 -51 -45 -59 -19 -26 -151 -156 -190
-188 -191 -155 -293 -233 -379 -291 -56 -37 -102 -70 -104 -74 -2 -5 -7 -8
-12 -8 -7 0 -464 -299 -487 -319 -7 -6 -14 -11 -17 -11 -9 0 -401 -263 -404
-272 -2 -4 -8 -8 -13 -8 -5 0 -32 -17 -59 -37 -27 -21 -65 -49 -85 -63 -91
-63 -392 -294 -405 -310 -3 -4 -41 -36 -85 -71 -134 -108 -126 -101 -275 -237
-170 -156 -437 -430 -561 -577 -19 -22 -36 -42 -39 -45 -3 -3 -27 -34 -55 -70
-27 -36 -52 -67 -55 -70 -14 -13 -103 -135 -161 -220 -35 -52 -66 -97 -69
-100 -10 -9 -116 -183 -150 -245 -18 -33 -42 -72 -52 -87 -11 -16 -16 -28 -13
-28 3 0 -2 -12 -13 -27 -10 -16 -27 -44 -37 -63 -49 -96 -65 -131 -65 -140 0
-5 -4 -10 -10 -10 -5 0 -10 -4 -10 -10 0 -5 -22 -56 -48 -112 -50 -106 -92
-206 -96 -229 -1 -8 -9 -30 -18 -49 -8 -19 -21 -53 -28 -75 -7 -22 -18 -53
-26 -70 -18 -41 -68 -211 -80 -275 -2 -14 -9 -36 -14 -50 -5 -14 -11 -34 -13
-45 -1 -11 -6 -25 -10 -31 -4 -7 -9 -29 -12 -50 -2 -22 -9 -61 -15 -89 -5 -27
-12 -61 -14 -75 -3 -14 -11 -61 -20 -105 -8 -44 -18 -117 -21 -162 -3 -45 -7
-90 -9 -100 -18 -94 -25 -459 -12 -653 14 -213 13 -197 36 -340 5 -30 12 -75
15 -100 4 -24 8 -47 10 -50 1 -3 6 -27 9 -54 4 -27 9 -52 11 -56 2 -4 6 -17 9
-31 30 -145 120 -445 166 -554 5 -11 14 -38 21 -60 7 -22 45 -109 86 -193 40
-85 73 -157 73 -161 0 -4 20 -40 45 -80 25 -40 45 -77 45 -81 0 -5 3 -10 7
-12 5 -1 16 -19 26 -38 9 -19 26 -48 37 -65 11 -16 23 -37 27 -45 11 -25 66
-104 77 -112 7 -5 7 -8 1 -8 -7 0 -7 -3 0 -8 15 -11 80 -94 93 -119 7 -12 18
-27 25 -35 11 -11 44 -54 79 -103 49 -68 134 -161 312 -345 165 -169 432 -385
684 -552 106 -70 194 -128 197 -128 3 0 34 -18 70 -40 36 -22 68 -40 71 -40 4
0 23 -10 43 -22 19 -12 41 -23 48 -24 7 -1 25 -11 40 -22 15 -11 31 -20 35
-21 8 -2 83 -33 133 -56 121 -56 253 -111 325 -137 128 -45 350 -119 369 -123
9 -1 34 -8 56 -14 22 -6 43 -11 47 -11 4 -1 22 -6 40 -11 84 -26 170 -46 268
-63 14 -2 32 -7 40 -10 8 -3 29 -8 45 -10 17 -3 41 -7 55 -10 60 -13 77 -17
115 -21 22 -2 67 -9 100 -14 33 -6 78 -13 100 -16 22 -2 50 -7 62 -9 12 -3 50
-7 85 -11 35 -3 84 -8 109 -11 390 -41 801 -47 1354 -19 44 3 123 7 175 9 100
5 203 12 348 22 48 4 110 8 137 9 28 1 95 6 150 10 55 4 129 8 165 10 103 6
462 7 500 1 19 -2 81 -7 137 -11 55 -3 115 -10 132 -15 17 -5 32 -9 34 -8 1 0
22 -5 47 -12 25 -7 56 -14 70 -16 14 -3 34 -9 45 -14 11 -5 41 -16 67 -24 25
-8 113 -47 195 -87 224 -108 490 -227 613 -274 19 -8 82 -32 140 -56 58 -23
109 -42 115 -43 5 -2 71 -22 145 -46 74 -24 137 -45 140 -45 3 -1 19 -7 35
-14 17 -7 41 -15 55 -17 14 -3 72 -19 130 -36 58 -16 112 -32 120 -33 8 -2 42
-11 75 -20 53 -14 152 -38 210 -50 193 -41 324 -68 340 -69 11 -1 29 -5 40 -9
24 -7 83 -16 215 -32 14 -2 42 -6 63 -9 75 -12 104 -15 262 -30 28 -3 70 -8
95 -10 314 -37 920 -37 1336 -1 122 10 166 14 204 20 19 2 62 7 95 10 33 3 71
8 85 11 14 2 34 6 46 8 12 2 45 7 75 11 30 4 56 8 59 10 3 2 27 6 54 9 27 4
52 9 56 11 3 2 28 6 54 10 26 3 68 10 94 16 26 6 58 13 72 15 56 10 176 36
190 41 8 3 22 7 30 8 8 1 53 12 100 25 47 12 92 24 100 25 8 2 15 4 15 5 0 1
8 3 18 5 37 7 244 67 277 80 19 7 69 24 110 36 41 12 77 23 80 24 3 1 18 7 33
13 16 7 31 12 34 12 9 0 246 90 265 100 10 6 22 10 28 10 5 0 33 11 62 24 30
14 78 34 108 46 30 12 79 33 110 47 30 14 73 32 95 41 22 8 47 21 56 29 8 7
20 13 25 13 18 1 392 194 476 247 21 13 40 23 43 23 3 0 51 26 108 59 56 32
133 75 170 95 37 20 82 45 100 54 18 10 48 24 67 32 19 7 55 22 79 32 24 11
51 21 60 23 9 2 61 15 116 29 137 36 141 36 410 52 44 3 85 5 90 6 6 0 55 -3
110 -7 55 -4 120 -8 145 -10 77 -5 184 -15 215 -21 55 -9 79 -13 140 -20 33
-3 67 -8 75 -9 15 -3 82 -13 135 -21 17 -3 37 -7 45 -9 13 -4 44 -10 105 -20
11 -2 40 -6 65 -10 25 -3 52 -8 60 -10 8 -3 33 -7 55 -10 22 -4 47 -8 55 -10
8 -3 32 -7 54 -11 37 -5 48 -7 106 -18 14 -3 41 -8 60 -10 19 -3 46 -8 60 -11
14 -2 41 -7 60 -9 19 -3 52 -8 72 -11 21 -2 77 -12 125 -20 92 -16 119 -20
193 -30 25 -3 56 -7 70 -9 73 -12 126 -19 130 -18 3 0 39 -4 80 -9 41 -5 106
-12 145 -15 38 -2 81 -7 95 -9 27 -5 131 -12 310 -20 63 -3 130 -7 148 -9 17
-1 32 2 32 7 0 4 5 5 11 1 27 -16 602 -1 779 21 25 3 61 8 80 10 175 18 152
15 365 54 174 32 215 42 420 96 55 15 105 28 110 29 6 1 15 5 21 8 6 4 21 9
35 12 13 2 96 30 184 61 88 31 166 57 173 59 7 1 18 8 24 14 7 7 18 12 24 12
7 0 50 17 96 39 46 21 117 53 158 72 41 18 100 48 130 65 30 17 84 47 120 66
126 69 148 83 384 253 139 99 194 144 336 275 15 14 62 57 104 95 70 63 335
367 396 455 14 19 30 39 36 45 11 10 144 212 181 275 97 166 219 411 268 540
26 69 51 134 56 145 5 11 22 67 38 125 17 58 41 143 55 190 14 47 27 103 30
125 4 23 9 52 12 65 3 14 7 39 10 55 3 17 9 46 14 65 10 41 16 85 37 295 8 82
9 626 0 670 -3 17 -9 66 -13 110 -8 91 -9 97 -18 145 -3 19 -8 47 -10 63 -3
15 -7 35 -10 45 -3 9 -7 33 -10 52 -11 77 -37 182 -76 315 -23 77 -44 151 -46
164 -5 22 -14 47 -59 156 -7 17 -21 55 -33 85 -11 30 -24 64 -28 75 -4 11 -8
22 -8 25 -3 9 -193 385 -212 417 -96 163 -221 356 -236 361 -4 2 -8 10 -8 17
0 7 -4 15 -8 17 -5 2 -36 39 -70 83 -35 44 -73 93 -85 109 -12 15 -27 33 -33
40 -6 6 -15 18 -20 27 -34 61 -399 442 -514 539 -53 44 -125 106 -185 159 -53
47 -147 121 -154 121 -9 0 -71 56 -71 64 0 4 12 12 28 19 49 22 202 108 208
118 3 5 10 7 15 4 5 -4 9 -2 9 4 0 5 10 13 23 17 12 3 43 22 70 40 26 19 50
34 54 34 3 0 39 22 80 50 40 27 78 50 83 50 6 0 10 5 10 10 0 6 6 10 14 10 8
0 16 3 18 8 2 4 32 27 68 52 36 24 71 50 78 57 7 7 17 13 21 13 4 0 17 8 29
18 44 37 58 48 92 72 19 13 37 27 40 30 3 3 25 21 50 40 25 19 50 39 57 45 7
5 18 15 25 20 30 24 164 139 179 154 9 9 46 42 82 74 120 107 360 351 477 487
12 14 34 39 48 55 15 17 63 75 107 130 44 55 82 102 85 105 3 3 30 39 60 80
30 41 57 77 60 80 5 5 74 103 100 144 49 75 74 112 79 116 3 3 15 22 26 43 11
20 23 37 27 37 5 0 8 4 8 9 0 4 25 48 55 97 49 80 72 121 131 234 11 19 22 37
25 40 9 8 211 424 213 440 1 3 9 22 20 44 10 21 19 44 21 50 1 6 9 28 19 48 9
21 16 39 16 41 0 3 8 22 17 43 9 22 17 41 18 44 1 6 43 118 52 140 3 8 7 17 8
20 4 16 48 148 55 165 7 17 42 134 55 185 2 8 14 49 25 90 11 41 23 83 25 93
2 10 6 26 9 35 3 9 8 32 11 51 3 19 8 37 10 41 4 6 9 30 20 88 3 15 12 56 20
92 7 36 16 83 20 105 3 23 7 52 10 65 3 13 7 40 10 60 3 20 7 47 10 60 7 37
15 93 20 140 2 24 7 59 9 79 12 89 23 216 32 371 7 127 10 570 4 570 -3 0 -5
30 -6 68 -1 72 -12 231 -19 297 -3 22 -7 60 -10 85 -3 25 -7 61 -10 80 -2 19
-7 53 -10 75 -5 38 -9 65 -20 130 -3 17 -8 46 -11 65 -3 19 -7 46 -10 60 -3
14 -7 39 -10 55 -2 17 -7 41 -11 55 -3 14 -8 33 -9 42 -4 19 -42 184 -48 208
-3 8 -9 35 -15 60 -6 25 -19 73 -30 108 -10 34 -17 62 -14 62 3 0 1 6 -4 13
-6 6 -13 26 -17 42 -7 32 -53 181 -63 205 -3 8 -7 18 -8 23 -2 4 -3 8 -5 10
-1 1 -3 9 -5 17 -4 21 -117 312 -149 384 -14 32 -26 65 -26 72 0 8 -4 14 -9
14 -5 0 -15 16 -21 35 -27 82 -231 470 -331 630 -10 17 -26 45 -36 63 -9 17
-20 32 -24 32 -4 0 -9 8 -13 18 -5 17 -26 52 -36 62 -14 14 -70 102 -70 109 0
5 -4 11 -8 13 -5 2 -23 26 -42 53 -19 28 -40 56 -47 63 -7 7 -13 17 -13 20 0
4 -10 18 -22 32 -13 14 -35 43 -50 65 -15 22 -39 52 -53 67 -14 15 -25 29 -25
32 0 2 -11 17 -24 32 -14 16 -54 64 -91 107 -167 200 -408 445 -595 607 -35
30 -68 60 -74 65 -6 6 -38 32 -71 60 -33 27 -62 52 -65 55 -3 3 -21 17 -40 30
-19 13 -37 27 -40 30 -24 29 -468 340 -520 363 -8 4 -28 16 -45 27 -16 11 -46
29 -65 40 -19 11 -57 34 -85 50 -27 16 -70 39 -95 52 -25 12 -56 30 -69 40
-13 10 -32 18 -42 18 -11 0 -19 4 -19 9 0 5 -9 13 -21 16 -11 4 -87 38 -167
77 -81 38 -156 73 -167 78 -11 4 -38 16 -60 26 -22 9 -60 25 -85 34 -25 10
-89 34 -143 55 -55 20 -104 38 -110 39 -7 1 -18 5 -24 9 -10 6 -99 37 -123 42
-3 0 -50 15 -105 32 -169 54 -497 134 -680 167 -16 3 -55 10 -85 16 -30 5 -71
12 -90 14 -20 3 -47 7 -60 10 -14 3 -49 8 -79 11 -30 2 -73 7 -95 9 -140 18
-156 20 -341 31 -94 6 -504 13 -508 8z"/>
<path d="M25997 23524 c-1 -2 -14 -5 -27 -7 -51 -10 -87 -21 -140 -44 -81 -35
-140 -67 -140 -75 0 -5 -7 -8 -15 -8 -8 0 -15 -4 -15 -10 0 -5 -4 -10 -10 -10
-15 0 -55 -35 -150 -130 -74 -75 -180 -201 -180 -215 0 -3 -8 -14 -17 -25 -46
-53 -152 -268 -167 -336 -53 -243 -30 -381 93 -558 78 -113 171 -173 326 -211
89 -22 231 -22 316 0 69 18 209 83 209 97 0 4 6 8 13 8 14 1 62 42 171 148
136 133 242 274 316 422 43 84 82 180 75 180 -3 0 -1 8 4 18 8 14 23 104 23
137 0 76 -41 268 -61 285 -3 3 -17 27 -31 54 -25 51 -138 176 -158 176 -7 0
-12 3 -12 8 0 8 -96 54 -140 67 -72 21 -270 41 -283 29z"/>
<path d="M27517 17734 c-1 -1 -36 -4 -77 -8 -149 -12 -303 -62 -390 -125 -52
-37 -134 -123 -167 -172 -15 -24 -30 -46 -33 -49 -7 -6 -32 -64 -30 -68 1 -2
-5 -13 -13 -25 -25 -39 -47 -149 -42 -207 8 -80 23 -147 40 -180 9 -17 13 -30
10 -30 -8 0 33 -79 66 -125 30 -44 77 -94 101 -110 8 -5 42 -28 74 -49 78 -52
204 -99 339 -127 86 -17 145 -22 275 -23 91 0 183 3 205 6 22 4 60 10 84 13
59 8 150 38 201 65 8 5 43 23 77 41 91 46 178 134 223 225 14 27 27 51 30 54
12 12 45 101 56 152 7 31 6 147 -1 176 -3 12 -7 32 -10 45 -15 70 -74 194
-110 233 -5 6 -26 30 -45 54 -38 45 -140 116 -205 142 -65 26 -124 48 -133 48
-4 1 -16 3 -27 5 -28 7 -77 16 -100 20 -11 1 -43 6 -70 10 -44 7 -322 15 -328
9z"/>
<path d="M25518 12925 c-2 -2 -22 -5 -46 -9 -50 -7 -114 -22 -157 -38 -77 -28
-196 -91 -205 -108 -5 -10 -16 -25 -24 -32 -7 -8 -23 -32 -35 -54 -12 -21 -32
-57 -44 -79 -24 -43 -60 -140 -62 -165 0 -8 -4 -20 -7 -25 -4 -6 -5 -55 -4
-110 3 -77 10 -119 31 -183 15 -46 33 -88 39 -95 7 -7 11 -18 8 -25 -2 -6 1
-12 7 -12 6 0 11 -5 11 -11 0 -13 90 -153 101 -157 5 -2 9 -9 9 -16 0 -14 78
-103 167 -191 66 -65 78 -76 138 -120 22 -17 45 -35 51 -41 27 -24 184 -95
249 -111 74 -19 200 -22 270 -7 22 4 42 9 45 9 89 18 225 78 274 120 60 52
145 205 176 316 64 234 -7 455 -236 729 -96 115 -258 258 -342 301 -15 8 -29
16 -32 19 -6 6 -110 55 -119 56 -3 0 -26 6 -50 13 -23 7 -62 14 -85 17 -74 7
-126 11 -128 9z"/>
</g>
</svg>
